<?xml version="1.0" encoding="iso-8859-1"?>
<!-- Generator: Adobe Illustrator 25.0.0, SVG Export Plug-In . SVG Version: 6.00 Build 0)  -->
<svg version="1.1" id="Layer_1" xmlns="http://www.w3.org/2000/svg" xmlns:xlink="http://www.w3.org/1999/xlink" x="0px" y="0px"
	 viewBox="0 0 283.46 283.46" style="enable-background:new 0 0 283.46 283.46;" xml:space="preserve">
<g>
	<path style="fill:#007AC9;" d="M-0.003,248.028c0,19.488,15.945,35.434,35.434,35.434h212.598
		c19.489,0,35.434-15.946,35.434-35.434V35.43c0-19.488-15.945-35.432-35.434-35.432H35.431c-19.489,0-35.434,15.944-35.434,35.432
		V248.028z"/>
</g>
<g>
	<path style="fill:#FFFFFF;" d="M232.891,148.953c-0.481-0.006-8.719-0.265-12.884-7.22c4.165-6.959,12.403-7.209,12.884-7.218
		c6.782,0.006,11.701,3.039,11.701,7.218C244.592,145.91,239.673,148.947,232.891,148.953 M214.464,214.463
		c-2.953,2.955-8.577,1.623-13.381-3.166c-0.329-0.352-5.981-6.354-4.004-14.219c7.861-1.974,13.87,3.672,14.216,4.008
		C216.087,205.889,217.42,211.508,214.464,214.463 M141.729,244.59c-4.179,0-7.21-4.916-7.219-11.699
		c0.009-0.483,0.263-8.723,7.219-12.887c6.956,4.164,7.213,12.404,7.221,12.887C148.942,239.674,145.907,244.59,141.729,244.59
		 M82.375,211.295c-4.799,4.791-10.425,6.123-13.382,3.17c-2.953-2.953-1.621-8.578,3.168-13.379
		c0.35-0.336,6.356-5.982,14.22-4.006C88.358,204.943,82.711,210.949,82.375,211.295 M50.568,148.951
		c-6.782-0.006-11.702-3.041-11.702-7.218c0-4.179,4.92-7.212,11.702-7.218c0.479,0.01,8.721,0.259,12.883,7.218
		C59.289,148.69,51.047,148.945,50.568,148.951 M68.993,68.998c2.954-2.957,8.583-1.62,13.377,3.169
		c0.341,0.349,5.988,6.356,4.011,14.217c-7.864,1.974-13.87-3.672-14.22-4.008C67.372,77.577,66.04,71.951,68.993,68.998
		 M141.729,38.871c4.178,0,7.213,4.922,7.221,11.701c-0.008,0.484-0.265,8.722-7.221,12.887c-6.956-4.165-7.21-12.403-7.219-12.887
		C134.519,43.793,137.55,38.871,141.729,38.871 M201.083,72.167c4.804-4.788,10.428-6.122,13.381-3.168
		c2.956,2.954,1.623,8.578-3.169,13.379c-0.346,0.337-6.355,5.982-14.216,4.006C195.102,78.524,200.754,72.516,201.083,72.167
		 M189.466,189.465l-47.735,19.771h-0.002l-0.006,0.002l-47.729-19.773l-19.771-47.73v-0.002v-0.002L93.994,94l47.733-19.773
		L189.466,94l19.773,47.731v0.002v0.003L189.466,189.465z M232.873,124.735c-0.52,0-10.014,0.112-17.224,6.908l-14.517-35.045
		c9.907-0.292,16.699-6.924,17.063-7.291c8.809-8.811,10.148-20.257,3.185-27.221c-6.966-6.965-18.414-5.626-27.222,3.181
		c-0.366,0.368-7,7.159-7.292,17.065l-35.044-14.513c6.795-7.211,6.901-16.71,6.901-17.226c0-12.459-7.143-21.501-16.994-21.501
		c-9.844,0-16.997,9.042-16.997,21.501c0,0.516,0.11,10.013,6.907,17.224L96.597,82.332c-0.292-9.906-6.931-16.697-7.297-17.064
		c-8.809-8.808-20.258-10.148-27.22-3.186c-6.963,6.968-5.628,18.414,3.185,27.225c0.363,0.366,7.158,6.998,17.064,7.291
		l-14.518,35.044c-7.21-6.795-16.708-6.907-17.223-6.907c-12.457,0-21.498,7.147-21.498,16.998c0,9.847,9.041,16.996,21.498,16.996
		c0.515,0,10.013-0.108,17.223-6.907l14.515,35.041c-9.903,0.293-16.695,6.93-17.06,7.295c-8.81,8.807-10.149,20.256-3.186,27.221
		c6.962,6.965,18.411,5.625,27.22-3.187c0.366-0.366,7.005-7.153,7.297-17.059l35.042,14.514c-6.797,7.213-6.907,16.707-6.907,17.22
		c0,12.461,7.147,21.5,16.997,21.5c9.851,0,16.994-9.039,16.994-21.5c0-0.513-0.104-10.009-6.901-17.222l35.04-14.512
		c0.296,9.906,6.93,16.693,7.296,17.059c8.808,8.812,20.256,10.152,27.222,3.187c6.963-6.965,5.624-18.412-3.185-27.221
		c-0.364-0.367-7.156-7.002-17.065-7.295l14.519-35.041c7.21,6.799,16.704,6.907,17.224,6.907c12.454,0,21.498-7.147,21.498-16.996
		C254.371,131.882,245.327,124.735,232.873,124.735"/>
	<path style="fill:none;stroke:#FFFFFF;stroke-width:0.936;" d="M232.891,148.953c-0.481-0.006-8.719-0.265-12.884-7.22
		c4.165-6.959,12.403-7.209,12.884-7.218c6.782,0.006,11.701,3.039,11.701,7.218C244.592,145.91,239.673,148.947,232.891,148.953
		 M214.464,214.463c-2.953,2.955-8.577,1.623-13.381-3.166c-0.329-0.352-5.981-6.354-4.004-14.219
		c7.861-1.974,13.87,3.672,14.216,4.008C216.087,205.889,217.42,211.508,214.464,214.463 M141.729,244.59
		c-4.179,0-7.21-4.916-7.219-11.699c0.009-0.483,0.263-8.723,7.219-12.887c6.956,4.164,7.213,12.404,7.221,12.887
		C148.942,239.674,145.907,244.59,141.729,244.59 M82.375,211.295c-4.799,4.791-10.425,6.123-13.382,3.17
		c-2.953-2.953-1.621-8.578,3.168-13.379c0.35-0.336,6.356-5.982,14.22-4.006C88.358,204.943,82.711,210.949,82.375,211.295
		 M50.568,148.951c-6.782-0.006-11.702-3.041-11.702-7.218c0-4.179,4.92-7.212,11.702-7.218c0.479,0.01,8.721,0.259,12.883,7.218
		C59.289,148.69,51.047,148.945,50.568,148.951 M68.993,68.998c2.954-2.957,8.583-1.62,13.377,3.169
		c0.341,0.349,5.988,6.356,4.011,14.217c-7.864,1.974-13.87-3.672-14.22-4.008C67.372,77.577,66.04,71.951,68.993,68.998
		 M141.729,38.871c4.178,0,7.213,4.922,7.221,11.701c-0.008,0.484-0.265,8.722-7.221,12.887c-6.956-4.165-7.21-12.403-7.219-12.887
		C134.519,43.793,137.55,38.871,141.729,38.871 M201.083,72.167c4.804-4.788,10.428-6.122,13.381-3.168
		c2.956,2.954,1.623,8.578-3.169,13.379c-0.346,0.337-6.355,5.982-14.216,4.006C195.102,78.524,200.754,72.516,201.083,72.167
		 M189.466,189.465l-47.735,19.771h-0.002l-0.006,0.002l-47.729-19.773l-19.771-47.73v-0.002v-0.002L93.994,94l47.733-19.773
		L189.466,94l19.773,47.731v0.002v0.003L189.466,189.465z M232.873,124.735c-0.52,0-10.014,0.112-17.224,6.908l-14.517-35.045
		c9.907-0.292,16.699-6.924,17.063-7.291c8.809-8.811,10.148-20.257,3.185-27.221c-6.966-6.965-18.414-5.626-27.222,3.181
		c-0.366,0.368-7,7.159-7.292,17.065l-35.044-14.513c6.795-7.211,6.901-16.71,6.901-17.226c0-12.459-7.143-21.501-16.994-21.501
		c-9.844,0-16.997,9.042-16.997,21.501c0,0.516,0.11,10.013,6.907,17.224L96.597,82.332c-0.292-9.906-6.931-16.697-7.297-17.064
		c-8.809-8.808-20.258-10.148-27.22-3.186c-6.963,6.968-5.628,18.414,3.185,27.225c0.363,0.366,7.158,6.998,17.064,7.291
		l-14.518,35.044c-7.21-6.795-16.708-6.907-17.223-6.907c-12.457,0-21.498,7.147-21.498,16.998c0,9.847,9.041,16.996,21.498,16.996
		c0.515,0,10.013-0.108,17.223-6.907l14.515,35.041c-9.903,0.293-16.695,6.93-17.06,7.295c-8.81,8.807-10.149,20.256-3.186,27.221
		c6.962,6.965,18.411,5.625,27.22-3.187c0.366-0.366,7.005-7.153,7.297-17.059l35.042,14.514c-6.797,7.213-6.907,16.707-6.907,17.22
		c0,12.461,7.147,21.5,16.997,21.5c9.851,0,16.994-9.039,16.994-21.5c0-0.513-0.104-10.009-6.901-17.222l35.04-14.512
		c0.296,9.906,6.93,16.693,7.296,17.059c8.808,8.812,20.256,10.152,27.222,3.187c6.963-6.965,5.624-18.412-3.185-27.221
		c-0.364-0.367-7.156-7.002-17.065-7.295l14.519-35.041c7.21,6.799,16.704,6.907,17.224,6.907c12.454,0,21.498-7.147,21.498-16.996
		C254.371,131.882,245.327,124.735,232.873,124.735"/>
</g>
</svg>
